<?xml version="1.0" encoding="UTF-8"?>
<svg version="1.1" xmlns="http://www.w3.org/2000/svg" width="750" height="708">
<path d="M0 0 C5.90169265 1.84230186 11.69866168 3.9220119 17.40380859 6.30639648 C20.95816765 7.7559972 24.55748892 9.0733729 28.15771484 10.40405273 C33.07655985 12.2299705 37.89089719 14.15195879 42.65380859 16.35717773 C45.27005642 17.4790248 47.92830672 18.44790342 50.60571289 19.4128418 C58.60472881 22.30219484 66.12362102 25.75205323 73.66943359 29.66967773 C76.44904248 31.07691416 79.181569 32.31213192 82.09521484 33.40405273 C82.09521484 34.06405273 82.09521484 34.72405273 82.09521484 35.40405273 C82.65208984 35.46592773 83.20896484 35.52780273 83.78271484 35.59155273 C87.69581462 36.96642563 90.07161135 39.94176203 92.40771484 43.27905273 C94.2232515 48.8907115 92.81183981 54.13296473 91.01318359 59.55249023 C90.79833817 60.20931793 90.58349274 60.86614563 90.36213684 61.5428772 C89.67862028 63.62492626 88.98098115 65.70191 88.28271484 67.77905273 C87.8253902 69.16415793 87.36900222 70.54957276 86.91357422 71.93530273 C85.65301114 75.76236126 84.37490663 79.58334999 83.09521484 83.40405273 C82.54947085 85.05373573 82.00386614 86.70346483 81.45849609 88.35327148 C80.06297013 92.53738115 78.58158531 96.68903828 77.09521484 100.84155273 C74.91277586 106.98330146 72.88900624 113.13646017 71.09521484 119.40405273 C70.53485725 121.27969412 69.97237295 123.15470152 69.40771484 125.02905273 C69.15634766 125.86694336 68.90498047 126.70483398 68.64599609 127.56811523 C68.46423828 128.17397461 68.28248047 128.77983398 68.09521484 129.40405273 C67.43521484 129.40405273 66.77521484 129.40405273 66.09521484 129.40405273 C65.98951172 130.55131836 65.88380859 131.69858398 65.77490234 132.88061523 C65.20217024 137.44840495 63.84277221 141.48916935 62.22021484 145.77905273 C60.25159283 151.08147182 58.46045092 156.38835563 56.86328125 161.81518555 C55.54452943 166.26020917 54.12875042 170.67431919 52.72021484 175.09155273 C52.41639893 176.04618408 52.11258301 177.00081543 51.79956055 177.984375 C49.64040933 184.74842655 47.42083573 191.48934001 45.13818359 198.21264648 C40.15668712 213.45565255 39.80791553 227.50438972 44.12255859 242.90795898 C44.90961322 245.73693045 45.56897175 248.51802485 46.09521484 251.40405273 C46.75521484 251.40405273 47.41521484 251.40405273 48.09521484 251.40405273 C48.49998047 252.28834961 48.90474609 253.17264648 49.32177734 254.08374023 C51.08341165 257.38195425 52.94875773 259.78384857 55.47021484 262.52905273 C56.22044922 263.35663086 56.97068359 264.18420898 57.74365234 265.03686523 C60.59353406 267.90568304 63.45887306 270.58588184 67.09521484 272.40405273 C67.09521484 273.06405273 67.09521484 273.72405273 67.09521484 274.40405273 C67.92021484 274.65155273 68.74521484 274.89905273 69.59521484 275.15405273 C72.20172634 276.0849497 74.36600448 277.02202525 76.78271484 278.29858398 C80.94344513 280.40282844 85.16062582 281.92389407 89.59521484 283.34155273 C90.7702356 283.7244043 90.7702356 283.7244043 91.96899414 284.11499023 C94.34215369 284.88520732 96.71825311 285.64566236 99.09521484 286.40405273 C99.77148926 286.62206543 100.44776367 286.84007812 101.14453125 287.06469727 C110.21088895 289.98483615 119.34309418 292.64553138 128.50830078 295.23730469 C133.41268279 296.62651911 138.29420931 298.06368889 143.15771484 299.59155273 C148.17651836 301.16237306 153.22403895 302.48319056 158.34130859 303.69311523 C160.21722856 304.17739528 162.07581129 304.73307088 163.91259766 305.34936523 C169.01810581 307.04127957 174.21426822 308.38531645 179.40771484 309.77905273 C180.56819336 310.09140869 181.72867187 310.40376465 182.92431641 310.72558594 C190.05951455 312.63216712 197.20791676 314.41837314 204.4074707 316.0625 C209.60268317 317.25865295 214.69787595 318.69417917 219.81005859 320.20092773 C223.43037082 321.24129979 227.07398223 322.17721901 230.72412109 323.10717773 C231.92311035 323.41292725 233.12209961 323.71867676 234.35742188 324.03369141 C236.76735299 324.64537912 239.17845483 325.25247673 241.59082031 325.85449219 C247.33787196 327.31534873 252.74131301 328.84010265 258.09521484 331.40405273 C258.09521484 332.06405273 258.09521484 332.72405273 258.09521484 333.40405273 C259.08521484 333.73405273 260.07521484 334.06405273 261.09521484 334.40405273 C264.96352002 340.21957909 263.76500422 347.82053071 262.54589844 354.34301758 C260.42244429 364.29510989 258.24862717 374.0942734 254.09521484 383.40405273 C253.34418968 386.21008451 253.34418968 386.21008451 252.90771484 388.84155273 C252.66988281 390.13899414 252.66988281 390.13899414 252.42724609 391.46264648 C252.31767578 392.10331055 252.20810547 392.74397461 252.09521484 393.40405273 C251.43521484 393.40405273 250.77521484 393.40405273 250.09521484 393.40405273 C249.99982422 394.31155273 249.90443359 395.21905273 249.80615234 396.15405273 C249.00956358 401.71060873 247.30929669 407.03269343 245.72021484 412.40405273 C245.41599609 413.45850586 245.11177734 414.51295898 244.79833984 415.59936523 C243.19812219 421.05651773 241.4196442 426.21828358 239.09521484 431.40405273 C238.47951977 433.23354667 237.87445942 435.06667231 237.28271484 436.90405273 C233.44497096 447.09586341 233.44497096 447.09586341 229.09521484 449.40405273 C221.67094866 450.46242225 214.92761891 450.48038298 208.06274414 447.2331543 C203.87268051 445.46749403 199.37273032 444.5608964 194.97021484 443.46655273 C187.66809573 441.60752962 180.42728443 439.6776562 173.24365234 437.39624023 C167.29317759 435.52102859 161.29451345 433.80523834 155.30664062 432.05395508 C153.08726376 431.40171604 150.87027367 430.74189498 148.65380859 430.07983398 C141.42422451 427.92509347 134.19986023 425.87134983 126.86865234 424.08374023 C124.01928809 423.38544533 121.1804851 422.65753552 118.34521484 421.90405273 C117.52537109 421.68749023 116.70552734 421.47092773 115.86083984 421.24780273 C113.68194329 420.58305463 111.53623227 419.80952548 109.40771484 418.99780273 C104.63272618 417.17940085 99.76164368 415.78488641 94.84521484 414.40405273 C93.921521 414.14205078 92.99782715 413.88004883 92.04614258 413.61010742 C86.24617237 411.97579702 80.43428755 410.42501102 74.56787109 409.04467773 C72.09521484 408.40405273 72.09521484 408.40405273 69.40380859 407.49389648 C66.74370226 406.61766311 64.11283889 405.85653167 61.40771484 405.14233398 C43.26681073 400.31669997 27.59539364 394.12096375 16.09521484 378.40405273 C16.09521484 377.74405273 16.09521484 377.08405273 16.09521484 376.40405273 C15.43521484 376.40405273 14.77521484 376.40405273 14.09521484 376.40405273 C12.75390723 374.13760215 11.42205251 371.86645177 10.09521484 369.59155273 C9.71365234 368.94895508 9.33208984 368.30635742 8.93896484 367.64428711 C6.09521484 362.74389648 6.09521484 362.74389648 6.09521484 359.40405273 C5.43521484 359.40405273 4.77521484 359.40405273 4.09521484 359.40405273 C3.74330078 358.74920898 3.39138672 358.09436523 3.02880859 357.41967773 C0.30292149 352.38070106 -2.48201695 347.39424879 -5.40478516 342.46655273 C-8.37463646 337.42501708 -10.99412094 332.26895911 -13.56884766 327.01733398 C-15.12543435 323.97243194 -16.96597667 321.21845216 -18.90478516 318.40405273 C-19.83958747 316.85233477 -20.7551947 315.28894614 -21.65478516 313.71655273 C-22.08275391 312.97018555 -22.51072266 312.22381836 -22.95166016 311.45483398 C-23.90478516 309.40405273 -23.90478516 309.40405273 -23.90478516 306.40405273 C-24.56478516 306.40405273 -25.22478516 306.40405273 -25.90478516 306.40405273 C-26.38044922 305.41791992 -26.38044922 305.41791992 -26.86572266 304.41186523 C-33.19619745 291.50609065 -40.23655266 278.9573092 -47.72509766 266.68920898 C-48.90478516 264.40405273 -48.90478516 264.40405273 -48.90478516 261.40405273 C-49.56478516 261.40405273 -50.22478516 261.40405273 -50.90478516 261.40405273 C-51.36626953 260.45788086 -51.82775391 259.51170898 -52.30322266 258.53686523 C-56.02671276 250.9658333 -59.89624356 243.51005045 -64.02978516 236.15405273 C-67.38302119 230.18555887 -70.646326 224.20709506 -73.58837891 218.02124023 C-74.8284421 215.41696579 -74.8284421 215.41696579 -76.37744141 213.22436523 C-82.17781776 204.14411033 -81.54649648 191.08151059 -79.35839844 180.84887695 C-78.08110455 176.2295329 -76.4201219 171.77770855 -74.65234375 167.32641602 C-73.62387242 164.68167949 -72.78673901 161.99505916 -71.96728516 159.27905273 C-71.65662109 158.2594043 -71.34595703 157.23975586 -71.02587891 156.18920898 C-70.109767 153.09613428 -69.20838098 149.99980285 -68.31494141 146.90014648 C-67.72019052 144.83886164 -67.12512899 142.7776664 -66.52978516 140.71655273 C-66.22911133 139.6755542 -65.9284375 138.63455566 -65.61865234 137.56201172 C-63.57082122 130.53203745 -61.34324854 123.58762237 -58.97045898 116.66162109 C-57.35888416 111.90973713 -55.96799199 107.13791817 -54.71728516 102.27905273 C-53.58472274 97.87930409 -52.35745109 93.6709613 -50.67822266 89.45483398 C-48.27956782 83.09476435 -46.50800312 76.48545824 -44.60791016 69.96264648 C-44.38731934 69.20653076 -44.16672852 68.45041504 -43.93945312 67.67138672 C-43.50879619 66.19118281 -43.0806225 64.71025352 -42.65527344 63.22851562 C-41.58125381 59.52780808 -40.36964598 55.96591349 -38.90478516 52.40405273 C-38.40448903 50.8691128 -37.92548099 49.3270816 -37.46728516 47.77905273 C-37.21076172 46.9140918 -36.95423828 46.04913086 -36.68994141 45.15795898 C-35.89028479 42.35319325 -35.1458619 39.53730033 -34.40478516 36.71655273 C-33.55900135 33.55925506 -32.64292927 30.79654709 -31.34228516 27.77905273 C-30.1778198 25.0450906 -29.60299731 23.07143366 -29.09228516 20.21655273 C-27.61672111 13.10701687 -24.35392778 5.35319536 -19.15478516 0.15405273 C-12.61957628 -3.36490589 -6.93744498 -2.03998828 0 0 Z " fill="#12D176" transform="translate(107.90478515625,234.595947265625)"/>
<path d="M0 0 C5.71702233 5.32169631 8.20725815 13.48285412 9.8125 20.9375 C9.85897193 22.60351865 9.87166931 24.27188397 9.8125 25.9375 C10.4725 25.9375 11.1325 25.9375 11.8125 25.9375 C12.06644531 26.96488281 12.32039063 27.99226563 12.58203125 29.05078125 C16.19885345 44.21454416 16.19885345 44.21454416 21.12890625 58.9765625 C21.87382923 61.11342728 22.3550157 63.22191487 22.8125 65.4375 C23.54061546 68.95871411 24.62734307 72.15215565 25.95703125 75.5 C27.54656191 80.02907365 28.65498427 84.7054106 29.84765625 89.3515625 C30.72156791 92.59954185 31.73771332 95.75198768 32.8125 98.9375 C33.58013579 101.67028341 34.30576567 104.41202668 35.03125 107.15625 C36.0995232 110.95930259 37.37537856 114.67978241 38.671875 118.41015625 C43.18257878 131.52680804 46.99510247 144.96356051 50.171875 158.46484375 C50.91720133 161.34162159 51.86860662 164.11945008 52.8125 166.9375 C53.92037486 170.61997011 54.97987885 174.31667151 56.04492188 178.01171875 C57.18868731 182.06441385 57.18868731 182.06441385 58.8125 185.9375 C60.84205167 202.0637377 58.03434954 214.14994638 49.8125 227.9375 C49.41224609 228.62312012 49.01199219 229.30874023 48.59960938 230.01513672 C46.72692524 233.21469366 44.81259759 236.38421894 42.859375 239.53515625 C41.0292826 242.57716099 39.41794733 245.6182523 37.875 248.8125 C33.06323998 258.73089113 27.15354165 268.08448977 21.4375 277.5 C19.00002197 281.54880805 16.86742336 285.68484008 14.8125 289.9375 C13.89794243 291.77188637 12.98122486 293.60519721 12.0625 295.4375 C11.42054688 296.72140625 11.42054688 296.72140625 10.765625 298.03125 C10.45109375 298.6603125 10.1365625 299.289375 9.8125 299.9375 C9.1525 299.9375 8.4925 299.9375 7.8125 299.9375 C7.71324219 300.47117187 7.61398437 301.00484375 7.51171875 301.5546875 C6.60448012 304.64639455 5.16850879 307.23443755 3.625 310.0625 C3.31111328 310.63943604 2.99722656 311.21637207 2.67382812 311.81079102 C0.80439774 315.22061316 -1.15008163 318.56350869 -3.1875 321.875 C-5.59542949 325.80709763 -7.67109217 329.85763883 -9.6875 334 C-12.0470939 338.84249352 -14.6650048 343.2905356 -17.74609375 347.70703125 C-19.3225306 350.1464498 -20.55916868 352.63006252 -21.8125 355.25 C-31.81176299 375.64014203 -42.34554778 394.06098746 -64.69433594 401.96972656 C-70.84517804 404.05734166 -77.08225393 405.78066795 -83.40625 407.26171875 C-86.00509281 407.89317915 -88.56585445 408.61565012 -91.13427734 409.35961914 C-95.48617378 410.58446324 -99.87255897 411.68317329 -104.25 412.8125 C-110.79497386 414.5073005 -117.32253867 416.22996056 -123.8125 418.125 C-129.21921864 419.70059757 -134.65201354 421.02003845 -140.15234375 422.2265625 C-143.53514363 423.01893004 -146.85171038 423.96636644 -150.1875 424.9375 C-170.03441497 430.52140548 -189.92665695 435.92066261 -209.94238281 440.86767578 C-222.37024578 443.5531907 -222.37024578 443.5531907 -234.1875 447.9375 C-249.40649719 449.40786128 -249.40649719 449.40786128 -254.5 446.71484375 C-256.25971396 444.53911046 -257.16995245 442.5524878 -258.1875 439.9375 C-258.4335498 439.35274902 -258.67959961 438.76799805 -258.93310547 438.16552734 C-262.07569353 430.68560153 -264.59319446 423.06393918 -266.60546875 415.203125 C-267.5251008 411.62334923 -268.65470091 408.16227467 -270.12890625 404.7734375 C-271.45122844 401.23098027 -272.24986202 397.6209911 -273.0625 393.9375 C-274.22915113 388.79866656 -275.48891921 383.76422332 -277.125 378.75 C-279.00723898 372.81082362 -280.51181521 366.81181174 -281.9375 360.75 C-282.16042725 359.83516846 -282.38335449 358.92033691 -282.61303711 357.9777832 C-284.36339267 350.3484338 -285.23373304 342.61087391 -283.1875 334.9375 C-282.5275 334.9375 -281.8675 334.9375 -281.1875 334.9375 C-280.98125 334.339375 -280.775 333.74125 -280.5625 333.125 C-277.57519098 328.37246293 -271.43658609 327.30814497 -266.27734375 326 C-265.30420982 325.75068726 -265.30420982 325.75068726 -264.31141663 325.49633789 C-262.25084954 324.97029743 -260.18799757 324.4539155 -258.125 323.9375 C-256.76872802 323.59174227 -255.41260686 323.24539236 -254.05664062 322.8984375 C-247.75872763 321.29453397 -241.45003515 319.75312738 -235.11328125 318.30859375 C-230.84137473 317.33458196 -226.63389512 316.26652858 -222.4375 315 C-217.21710321 313.47448405 -211.98637349 312.15047362 -206.6875 310.9375 C-200.21702237 309.45500046 -193.84861012 307.74657538 -187.4765625 305.87890625 C-183.34332371 304.69587709 -179.18222434 303.65884159 -175.00390625 302.6484375 C-171.70932385 301.81679534 -168.4527073 300.87785194 -165.1875 299.9375 C-163.84686238 299.5645744 -162.50569366 299.19355404 -161.1640625 298.82421875 C-153.02456657 296.58209557 -144.90287209 294.29374644 -136.81079102 291.88574219 C-132.81755561 290.70044485 -128.81716717 289.54829235 -124.8046875 288.4296875 C-123.42083862 288.0418811 -123.42083862 288.0418811 -122.0090332 287.64624023 C-120.2301932 287.14899613 -118.45015901 286.65599502 -116.66870117 286.16821289 C-97.7778648 280.87142461 -78.50375434 272.38939407 -68.1875 254.9375 C-67.71699219 254.19628906 -67.24648438 253.45507812 -66.76171875 252.69140625 C-61.09357688 243.31138386 -59.64252931 233.57011512 -59.75 222.75 C-59.75902344 221.64922119 -59.76804687 220.54844238 -59.77734375 219.41430664 C-59.9681198 210.38357794 -61.30259055 202.51935822 -64.1875 193.9375 C-64.63802734 192.56247314 -64.63802734 192.56247314 -65.09765625 191.15966797 C-66.80199978 185.96058475 -68.53898923 180.77362458 -70.30078125 175.59375 C-72.12097596 170.20348145 -73.69589488 164.78631133 -75.2019043 159.30029297 C-76.15919933 156.03406017 -77.24931241 152.86167229 -78.4140625 149.6640625 C-81.49391607 141.11995259 -84.43980414 132.53221303 -87.375 123.9375 C-87.65552216 123.11678009 -87.93604431 122.29606018 -88.22506714 121.45046997 C-92.10211031 110.10382612 -95.95150151 98.74818714 -99.75 87.375 C-100.14276123 86.20130859 -100.53552246 85.02761719 -100.94018555 83.81835938 C-103.46703927 76.224104 -105.86239672 68.59576934 -108.1875 60.9375 C-108.50968506 59.88892822 -108.83187012 58.84035645 -109.16381836 57.76000977 C-111.01088843 51.66333032 -111.95536249 47.36955402 -108.921875 41.48046875 C-103.1595253 33.03161817 -90.42340896 29.04750898 -81.34082031 24.92382812 C-79.26684701 23.97384489 -77.20605996 23.00045265 -75.1484375 22.015625 C-68.83755685 19.00162723 -62.54433656 16.24947099 -55.92578125 13.96484375 C-52.77838971 12.78401069 -49.78541031 11.38139031 -46.75 9.9375 C-41.53493027 7.47568944 -36.3180595 5.54260837 -30.82421875 3.8046875 C-27.99525936 2.92075215 -27.99525936 2.92075215 -24.625 1.375 C-16.29119945 -2.11004386 -8.16395551 -5.28255945 0 0 Z " fill="#12D176" transform="translate(664.1875,236.0625)"/>
<path d="M0 0 C5.35626924 0.01729555 10.7121591 0.00500558 16.06840432 -0.01451159 C21.97057298 -0.03512221 27.87254265 -0.03260022 33.77472854 -0.02098465 C36.23896021 -0.01835793 38.7032062 -0.02144013 41.1674211 -0.03090286 C61.43474645 -0.09173672 83.71009101 -0.13226026 101.64110351 10.51427841 C102.61047851 11.07373154 103.57985351 11.63318466 104.57860351 12.20959091 C112.80978944 17.19751065 119.5101119 22.98440785 125.69969726 30.32287216 C128.84500558 33.87321013 132.28417137 37.12444509 135.69969726 40.41271591 C137.64110351 42.51427841 137.64110351 42.51427841 137.64110351 44.51427841 C138.30110351 44.51427841 138.96110351 44.51427841 139.64110351 44.51427841 C141.29735351 46.12365341 141.29735351 46.12365341 143.14110351 48.26427841 C143.74954101 48.96037216 144.35797851 49.65646591 144.98485351 50.37365341 C146.52087313 52.35888633 147.6135001 54.23299886 148.64110351 56.51427841 C149.30110351 56.51427841 149.96110351 56.51427841 150.64110351 56.51427841 C152.26610351 57.88927841 152.26610351 57.88927841 153.64110351 59.51427841 C153.64110351 60.17427841 153.64110351 60.83427841 153.64110351 61.51427841 C154.30110351 61.51427841 154.96110351 61.51427841 155.64110351 61.51427841 C157.05281115 63.11103019 158.39509819 64.76941443 159.70360351 66.45177841 C163.51403485 71.23956065 167.54511352 75.53635968 171.98875976 79.73693466 C173.64110351 81.51427841 173.64110351 81.51427841 173.64110351 83.51427841 C174.30110351 83.51427841 174.96110351 83.51427841 175.64110351 83.51427841 C177.09740233 84.97643661 177.09740233 84.97643661 178.78563476 87.00255966 C182.50056856 91.37041541 186.38293335 95.54265873 190.32860351 99.70177841 C191.7286779 101.18583762 193.12841368 102.67021635 194.52782226 104.15490341 C196.53271603 106.2803253 198.53803808 108.40532126 200.54588866 110.52795029 C202.24917864 112.33137951 203.94598783 114.14066887 205.64110351 115.95177841 C206.40620238 116.75748276 206.40620238 116.75748276 207.1867578 117.57946396 C210.64110351 121.28587207 210.64110351 121.28587207 210.64110351 123.51427841 C211.30110351 123.51427841 211.96110351 123.51427841 212.64110351 123.51427841 C213.94579101 124.80724716 213.94579101 124.80724716 215.51610351 126.70177841 C218.66573278 130.40340457 221.90114279 134.01154823 225.20360351 137.57677841 C225.70472655 138.11963486 226.2058496 138.6624913 226.72215819 139.22179794 C229.61435457 142.3485696 232.52695692 145.45467057 235.45750976 148.54552841 C236.09164794 149.21704941 236.72578612 149.8885704 237.37914062 150.58044052 C238.61423771 151.88712819 239.8531942 153.19018129 241.09642577 154.48913193 C241.66031005 155.08653183 242.22419433 155.68393173 242.80516601 156.29943466 C243.30483886 156.82416367 243.80451171 157.34889267 244.31932616 157.88952255 C245.75991974 159.66032977 246.69411141 161.44354109 247.64110351 163.51427841 C248.30110351 163.51427841 248.96110351 163.51427841 249.64110351 163.51427841 C252.0077809 167.42488269 253.62220635 170.4371404 253.70360351 175.07677841 C252.35529871 179.43894098 250.57023786 182.01360565 247.64110351 185.51427841 C246.98110351 185.51427841 246.32110351 185.51427841 245.64110351 185.51427841 C245.64110351 186.17427841 245.64110351 186.83427841 245.64110351 187.51427841 C244.17235351 188.95959091 244.17235351 188.95959091 242.14110351 190.63927841 C239.15135087 193.17555887 236.32400074 195.7776552 233.57860351 198.57677841 C226.42708775 205.8129275 226.42708775 205.8129275 222.64110351 208.51427841 C221.98110351 208.51427841 221.32110351 208.51427841 220.64110351 208.51427841 C220.64110351 209.17427841 220.64110351 209.83427841 220.64110351 210.51427841 C219.98110351 210.51427841 219.32110351 210.51427841 218.64110351 210.51427841 C218.64110351 211.17427841 218.64110351 211.83427841 218.64110351 212.51427841 C216.99657226 214.20568466 216.99657226 214.20568466 214.82860351 216.07677841 C214.12090819 216.69681747 213.41321288 217.31685654 212.68407226 217.95568466 C210.64110351 219.51427841 210.64110351 219.51427841 207.64110351 220.51427841 C207.64110351 221.17427841 207.64110351 221.83427841 207.64110351 222.51427841 C205.22608482 225.09612405 202.35644195 227.25840084 199.64110351 229.51427841 C198.73207274 230.28167343 198.73207274 230.28167343 197.80467772 231.06457138 C195.7373614 232.80766184 193.65928386 234.53716989 191.57860351 236.26427841 C190.90635741 236.83122421 190.23411132 237.39817001 189.54149413 237.98229599 C184.53500105 242.09503462 179.97295007 245.26281829 173.32860351 245.76427841 C167.54656455 243.80426521 163.914576 239.76157344 159.64110351 235.51427841 C158.85090819 234.74986435 158.06071288 233.98545029 157.24657226 233.19787216 C144.31237248 220.52808533 144.31237248 220.52808533 142.64110351 215.51427841 C141.98110351 215.51427841 141.32110351 215.51427841 140.64110351 215.51427841 C139.21117187 214.07629013 139.21117187 214.07629013 137.54344726 212.06896591 C134.92593791 208.98930363 132.25265658 206.00435389 129.45750976 203.08459091 C128.75819335 202.35240341 128.05887694 201.62021591 127.33836913 200.86584091 C125.89038503 199.35559217 124.43977484 197.8478577 122.98680663 196.34240341 C121.95136718 195.25572372 121.95136718 195.25572372 120.89500976 194.14709091 C120.26925048 193.49627548 119.6434912 192.84546005 118.99876952 192.17492294 C117.64110351 190.51427841 117.64110351 190.51427841 117.64110351 188.51427841 C117.06747069 188.27709091 116.49383788 188.03990341 115.90282226 187.79552841 C113.14788255 186.23487172 111.52929276 184.40377861 109.45360351 182.01427841 C108.66856444 181.1209581 107.88352538 180.22763779 107.07469726 179.30724716 C105.87006835 177.92472763 105.87006835 177.92472763 104.64110351 176.51427841 C99.99711342 171.28106755 95.32632348 166.13805579 90.33250976 161.23693466 C87.83972607 158.69809493 85.53661077 156.00564047 83.21922851 153.30724716 C81.94458592 151.85907651 80.58537206 150.48561701 79.20360351 149.13927841 C77.64110351 147.51427841 77.64110351 147.51427841 77.64110351 145.51427841 C76.98110351 145.51427841 76.32110351 145.51427841 75.64110351 145.51427841 C74.19579101 144.04552841 74.19579101 144.04552841 72.51610351 142.01427841 C69.99852449 139.0475048 67.41941374 136.23853592 64.64110351 133.51427841 C61.39080368 130.31398319 58.39386106 126.97203265 55.42235351 123.51427841 C52.93662021 120.72327962 50.27070841 118.13300722 47.60594726 115.51427841 C45.70710443 113.58146027 43.95271355 111.58251015 42.20360351 109.51427841 C32.68838632 98.5567093 21.34205139 90.92086528 6.68407226 89.15880966 C-5.85585995 88.58670425 -17.72526359 92.35805158 -27.53858399 100.15880966 C-29.35889649 101.51427841 -29.35889649 101.51427841 -31.35889649 101.51427841 C-31.35889649 102.17427841 -31.35889649 102.83427841 -31.35889649 103.51427841 C-32.82764649 104.95959091 -32.82764649 104.95959091 -34.85889649 106.63927841 C-41.26092061 112.09285451 -46.97082995 118.00762558 -52.44483399 124.38146591 C-54.66341477 126.85359878 -56.99596319 129.17990019 -59.35889649 131.51427841 C-62.94448348 135.0566004 -66.30781311 138.68983502 -69.58155274 142.51818466 C-71.59158426 144.77560467 -73.70722602 146.89163554 -75.85889649 149.01427841 C-80.53925996 153.63901787 -84.86785197 158.49517837 -89.05420899 163.56896591 C-89.58788087 164.21091904 -90.12155274 164.85287216 -90.67139649 165.51427841 C-91.14190431 166.09177841 -91.61241212 166.66927841 -92.09717774 167.26427841 C-93.35889649 168.51427841 -93.35889649 168.51427841 -95.35889649 168.51427841 C-95.61284181 169.09693466 -95.86678712 169.67959091 -96.12842774 170.27990341 C-97.49209982 172.75615874 -99.00114853 174.31948467 -101.04639649 176.26427841 C-103.80121586 178.94450881 -106.41814509 181.66009408 -108.92139649 184.57677841 C-111.756178 187.87968897 -114.74451255 190.95213736 -117.87842774 193.97130966 C-119.57725154 195.65135213 -119.57725154 195.65135213 -121.35889649 198.51427841 C-122.01889649 198.51427841 -122.67889649 198.51427841 -123.35889649 198.51427841 C-123.62226808 199.09910995 -123.88563966 199.6839415 -124.1569922 200.28649521 C-125.41268972 202.61398656 -126.77335018 204.24327993 -128.58936524 206.15880966 C-129.22809571 206.83621201 -129.86682618 207.51361435 -130.52491212 208.21154404 C-131.19200196 208.90957138 -131.85909181 209.60759872 -132.54639649 210.32677841 C-133.51802735 211.35641708 -133.51802735 211.35641708 -134.50928712 212.40685654 C-137.67062919 215.7450569 -140.86862815 219.03777215 -144.13233399 222.27599716 C-146.47409212 224.60319993 -148.68666485 226.97164079 -150.79639649 229.51427841 C-161.14585985 241.52245937 -161.14585985 241.52245937 -167.23389649 242.95568466 C-179.01095998 243.62680409 -187.84288142 233.59391291 -196.09717774 226.33068466 C-198.71501497 224.03884512 -201.40898713 221.92421312 -204.23389649 219.88927841 C-205.26514649 219.10552841 -206.29639649 218.32177841 -207.35889649 217.51427841 C-207.35889649 216.85427841 -207.35889649 216.19427841 -207.35889649 215.51427841 C-207.91061524 215.2809581 -208.46233399 215.04763779 -209.03077149 214.80724716 C-211.97144916 213.17408557 -214.149669 211.12088634 -216.60889649 208.82677841 C-224.7686362 201.26278056 -224.7686362 201.26278056 -233.35889649 194.20177841 C-234.01889649 193.64490341 -234.67889649 193.08802841 -235.35889649 192.51427841 C-235.35889649 191.85427841 -235.35889649 191.19427841 -235.35889649 190.51427841 C-236.2232129 190.13529404 -236.2232129 190.13529404 -237.10499024 189.74865341 C-242.85024252 186.60220676 -248.36454404 180.76324945 -250.35889649 174.51427841 C-250.21327542 166.35949851 -245.41300566 161.30833318 -240.04639649 155.63927841 C-239.53512208 155.09191025 -239.02384767 154.54454208 -238.49708009 153.98058701 C-236.78897684 152.1540852 -235.07446029 150.3337734 -233.35889649 148.51427841 C-231.38908313 146.42113326 -229.41993679 144.32736905 -227.45191407 142.23254013 C-226.17371309 140.87299477 -224.89370345 139.51514677 -223.61158204 138.15929794 C-220.13582062 134.46991077 -216.80273123 130.72094653 -213.61622071 126.77746201 C-213.20130372 126.36061142 -212.78638673 125.94376083 -212.35889649 125.51427841 C-211.69889649 125.51427841 -211.03889649 125.51427841 -210.35889649 125.51427841 C-210.12557618 124.95224716 -209.89225587 124.39021591 -209.65186524 123.81115341 C-208.03952573 120.94693699 -206.03954029 119.0417582 -203.67139649 116.76427841 C-200.71297248 113.868889 -197.83428929 110.99589822 -195.17139649 107.82677841 C-190.89232999 102.80172453 -186.13015778 98.23785366 -181.42457032 93.61706161 C-180.78672608 92.98759628 -180.14888185 92.35813095 -179.49170899 91.70959091 C-178.91308106 91.14256454 -178.33445313 90.57553818 -177.73829103 89.99132919 C-176.25516715 88.54317675 -176.25516715 88.54317675 -175.35889649 86.51427841 C-174.69889649 86.51427841 -174.03889649 86.51427841 -173.35889649 86.51427841 C-173.12299806 85.94966904 -172.88709962 85.38505966 -172.64405274 84.80334091 C-171.06654708 81.99355878 -169.11838364 80.1180879 -166.79639649 77.88927841 C-163.66847596 75.0035716 -163.66847596 75.0035716 -161.35889649 71.51427841 C-160.69889649 71.51427841 -160.03889649 71.51427841 -159.35889649 71.51427841 C-158.86389649 70.02927841 -158.86389649 70.02927841 -158.35889649 68.51427841 C-157.69889649 68.51427841 -157.03889649 68.51427841 -156.35889649 68.51427841 C-156.12557618 67.95224716 -155.89225587 67.39021591 -155.65186524 66.81115341 C-154.03952573 63.94693699 -152.03954029 62.0417582 -149.67139649 59.76427841 C-146.71297248 56.868889 -143.83428929 53.99589822 -141.17139649 50.82677841 C-135.84905272 44.59823223 -129.8727721 38.95249112 -124.05445313 33.19323349 C-120.89158785 30.06133651 -117.7465517 26.91996409 -114.67139649 23.70177841 C-112.35889649 21.51427841 -112.35889649 21.51427841 -110.35889649 21.51427841 C-110.35889649 20.85427841 -110.35889649 20.19427841 -110.35889649 19.51427841 C-108.37889649 19.01927841 -108.37889649 19.01927841 -106.35889649 18.51427841 C-106.35889649 17.85427841 -106.35889649 17.19427841 -106.35889649 16.51427841 C-104.37452149 14.96349716 -104.37452149 14.96349716 -101.60889649 13.20177841 C-100.28631837 12.34132919 -100.28631837 12.34132919 -98.93702149 11.46349716 C-70.47342361 -4.90639473 -31.48426074 -0.11349207 0 0 Z " fill="#12D176" transform="translate(374.35889649391174,24.485721588134766)"/>
</svg>
